<svg xmlns="http://www.w3.org/2000/svg" xmlns:xlink="http://www.w3.org/1999/xlink" version="1.1" width="457.47" height="457.469" style="" xml:space="preserve"><rect id="backgroundrect" width="100%" height="100%" x="0" y="0" fill="none" stroke="none"/>
















<g class="currentLayer" style=""><title>Layer 1</title><g id="svg_1" class="selected" fill-opacity="1" fill="#0fd9b7">
	<path d="M228.734,0C102.41,0,0,102.41,0,228.735C0,355.06,102.41,457.469,228.734,457.469   c126.325,0,228.735-102.409,228.735-228.734C457.47,102.41,355.06,0,228.734,0z M359.268,265.476h-97.326v97.315   c0,16.668-13.506,30.186-30.181,30.186c-16.668,0-30.189-13.518-30.189-30.186v-97.315h-97.309   c-16.674,0-30.192-13.512-30.192-30.187c0-16.674,13.518-30.188,30.192-30.188h97.315v-97.31c0-16.674,13.515-30.183,30.189-30.183   c16.675,0,30.187,13.509,30.187,30.183v97.315h97.314c16.669,0,30.192,13.515,30.192,30.188   C389.46,251.97,375.937,265.476,359.268,265.476z" id="svg_2" fill="#0fd9b7"/>
</g><g id="svg_3">
</g><g id="svg_4">
</g><g id="svg_5">
</g><g id="svg_6">
</g><g id="svg_7">
</g><g id="svg_8">
</g><g id="svg_9">
</g><g id="svg_10">
</g><g id="svg_11">
</g><g id="svg_12">
</g><g id="svg_13">
</g><g id="svg_14">
</g><g id="svg_15">
</g><g id="svg_16">
</g><g id="svg_17">
</g></g></svg>